<?xml version="1.0" encoding="utf-8"?>
<!-- Generator: Adobe Illustrator 26.0.2, SVG Export Plug-In . SVG Version: 6.00 Build 0)  -->
<svg version="1.1" id="Layer_1" xmlns="http://www.w3.org/2000/svg" xmlns:xlink="http://www.w3.org/1999/xlink" x="0px" y="0px"
	 viewBox="0 0 64 64" style="enable-background:new 0 0 64 64;" xml:space="preserve">
<style type="text/css">
	.st0{fill:#FFFFFF;}
	.st1{fill:#3C55A5;}
</style>
<path class="st0" d="M66.7,68.6H-2.5c-1.1,0-2-0.9-2-2V-2.6c0-1.1,0.9-2,2-2h69.2c1.1,0,2,0.9,2,2v69.2
	C68.7,67.7,67.8,68.6,66.7,68.6z"/>
<g transform="matrix(0.98733 0 0 0.98733 0.206931 0.206931)">
	<g>
		<path class="st1" d="M54,32.5h-3c0-10-8.1-18.1-18.1-18.1v-3C44.5,11.4,54,20.9,54,32.5z M32.9,16.7v3c7.1,0,12.8,5.7,12.8,12.8h3
			C48.7,23.8,41.6,16.7,32.9,16.7z M32.3,2.3C15.8,2.3,2.4,15.7,2.4,32.2c0,16.5,13.4,29.9,29.9,29.9c1,0,1.8-0.8,1.8-1.8
			c0-1-0.8-1.9-1.8-1.9c-14.5,0-26.2-11.8-26.2-26.2C6.1,17.7,17.8,6,32.3,6s26.2,11.8,26.2,26.2c0,6-3.2,12-7.8,14.6
			c-1.7,0.9-3.5,1.4-5.4,1.4c1.2-0.7,2.2-1.6,2.9-2.8c0.1-0.2,0.3-0.4,0.4-0.7c0.6-1.4,0.7-3.1,1-4.6c0.4-1.9-8.5-5.8-9.3-3.3
			c-0.3,0.9-0.7,3.8-1.3,4.5c-0.5,0.7-1.7,0.4-2.5-0.3c-2-1.7-4.3-4.3-6.3-6.3l0,0c0-0.1-0.1-0.1-0.2-0.2c-0.1-0.1-0.1-0.1-0.2-0.2
			l0,0c-2-2-4.6-4.3-6.3-6.3c-0.7-0.8-1-2-0.3-2.5c0.7-0.6,3.6-1,4.5-1.3c2.4-0.8-1.4-9.8-3.3-9.3c-1.5,0.4-3.2,0.4-4.6,1
			c-0.2,0.1-0.4,0.3-0.7,0.4c-5.1,3.3-5.8,11.1-0.8,17c1.9,2.3,3.9,4.4,5.9,6.6l0,0c0.1,0.1,0.1,0.1,0.2,0.2
			c0.1,0.1,0.1,0.1,0.2,0.2l0,0c2.1,2,4.6,5.1,8.7,7.8c8.6,5.8,15.2,4.2,19.1,2c6.7-3.7,9.7-11.6,9.7-17.8
			C62.2,15.7,48.8,2.3,32.3,2.3z"/>
	</g>
</g>
</svg>
