<?xml version="1.0" encoding="utf-8"?>
<!DOCTYPE svg PUBLIC "-//W3C//DTD SVG 1.1//EN" "http://www.w3.org/Graphics/SVG/1.1/DTD/svg11.dtd">
<svg version="1.1"
     xmlns="http://www.w3.org/2000/svg"
     xmlns:xlink="http://www.w3.org/1999/xlink"
     width="64px"
     height="64px"
     x="px" y="0px"
     viewBox="0 0 1000 1000"
     enable-background="new 0 0 1000 1000"
     xml:space="preserve"
>
  <g>
    <g transform="translate(0.000000,512.000000) scale(0.100000,-0.100000)" fill="#ffffff">
      <path d="M868,5008.5c-172.4-42.1-329.4-172.4-411.8-337.1l-47.9-95.8V122.9v-4452.8l47.9-95.8c59.4-122.6,174.3-237.5,296.9-296.9l95.8-47.9l1614.5-5.7l1612.6-3.8v612.9v612.8H2946c-1248.7,0-1208.5-3.8-1283.2,120.7c-38.3,59.4-38.3,124.5-38.3,3556.5c0,3432,0,3497.1,38.3,3556.5c76.6,128.3-61.3,120.7,2200.5,120.7h2049.3l5.7-693.3l5.8-695.2l47.9-95.8c59.4-122.6,174.3-237.5,296.9-296.9l95.8-47.9l695.2-5.7l693.3-5.8v-838.8V281.8l157.1-42.1c281.5-78.5,565-203,800.5-356.2l126.4-80.4l70.9,47.9l72.8,47.9l-5.7,1275.5l-5.7,1275.5l-46,105.3c-40.2,91.9-189.6,249-1158.7,1221.9c-995.9,997.8-1126.1,1122.3-1237.2,1177.8l-124.5,61.3l-2738.7,3.8C2158.8,5020,900.6,5016.2,868,5008.5z"/>
      <path d="M6939.1-283.2c-348.6-26.8-762.2-176.2-1064.8-379.2c-252.8-172.4-578.4-530.5-687.5-754.6c-34.5-72.8-40.2-114.9-34.5-220.2c13.4-241.3,164.7-404.1,419.4-446.3c201.1-32.5,346.7,26.8,471.2,195.4c216.4,291.1,321.8,386.9,551.6,497.9c465.4,226,1045.7,147.5,1371.2-183.9l78.5-80.4l-260.5-214.5c-141.7-118.8-264.3-233.6-271.9-256.6c-36.4-111.1,7.6-220.3,101.5-256.7c28.7-11.5,440.5-95.8,913.6-187.7c944.2-180,944.2-180,1020.8-67l44,65.1v915.5V-739l-55.5,61.3c-47.9,53.6-68.9,63.2-141.7,63.2c-90,0-86.2,1.9-476.9-323.7l-91.9-74.7L8703-896C8214.6-440.2,7613.3-229.5,6939.1-283.2z"/>
      <path d="M4771.1-2363c-23-17.2-51.7-57.5-61.3-86.2c-30.6-76.6-28.7-1821.4,0-1876.9c36.4-70.9,99.6-109.2,180-109.2c70.9,0,101.5,19.2,323.7,201.1l247,201.1l145.6-139.8c670.3-639.7,1694.9-789.1,2529.9-367.7c402.2,203,758.4,538.2,940.4,884.8c68.9,130.2,74.7,277.7,15.3,407.9c-82.4,181.9-212.6,266.2-436.7,281.5c-134.1,9.6-155.1,5.7-250.9-46c-82.3-44.1-126.4-86.2-204.9-197.3c-268.1-383-626.3-574.6-1076.3-574.6c-291.1,0-534.3,80.4-746.9,250.9c-160.9,128.3-160.9,124.5,51.7,296.8c327.5,266.2,348.6,289.2,348.6,379.2c0,84.3-34.5,151.3-95.7,183.9C6627-2644.6,4978-2328.6,4888-2328.6C4845.8-2328.6,4794.1-2343.9,4771.1-2363z"/>
    </g>
  </g>
</svg>
