<svg xmlns="http://www.w3.org/2000/svg" viewBox="0 0 20 20"><path fill="#475867" d="M12.944 3.5a.5.5 0 01.492.41l.008.09v.508h1.783c.946 0 1.722.728 1.797 1.655l.006.148v4.245h.536a.5.5 0 01.487.388l.013.122a3.88 3.88 0 01-.198 1.338c-.172.504-.45.91-.837 1.177v.59a1.803 1.803 0 01-1.656 1.788l-.148.006H6.78a1.803 1.803 0 01-1.796-1.648l-.006-.148V11.09A.5.5 0 015.97 11l.008.09.001 1.002a1.541 1.541 0 00.162.465c.121.224.258.33.457.331a.602.602 0 00.607-.426l.015-.083v-1.323a.5.5 0 01.41-.492l.09-.008h8.311V8.422H5.976v.392a.5.5 0 01-.991.09l-.008-.09V6.31c0-.946.728-1.722 1.655-1.797l.147-.006h1.804V4a.5.5 0 01.992-.09l.008.09v.508h2.861V4a.5.5 0 01.5-.5zm-6.37 10.387c-.222 0-.421-.046-.598-.13v.41a.803.803 0 00.703.792l.1.006h8.448a.803.803 0 00.797-.696l.006-.1v-.248a2.637 2.637 0 01-.206.008l-8.917-.042-.09-.008-.105.009a1.534 1.534 0 01-.138 0zm1.643-1.467a1.601 1.601 0 01-.112.474l7.253.034h.466c.073 0 .142-.004.208-.013l-.002-1.359H8.218v.864zM3.622 8.248a.5.5 0 01.058.637l-.058.07-.463.462h3.75a.5.5 0 01.09.993l-.09.008-3.659-.001.366.369a.5.5 0 01.056.638l-.058.069a.5.5 0 01-.638.056l-.069-.058-1.262-1.269a.5.5 0 01-.056-.637l.057-.069 1.269-1.268a.5.5 0 01.707 0zm4.961-2.74H6.779a.803.803 0 00-.796.702l-.006.1-.001 1.112H16.03V6.311a.803.803 0 00-.702-.797l-.1-.006h-1.784v.72a.5.5 0 01-.992.09l-.008-.09v-.72H9.583v.72a.5.5 0 01-.992.09l-.008-.09v-.72z"/></svg>