<svg xmlns="http://www.w3.org/2000/svg" xmlns:xlink="http://www.w3.org/1999/xlink" width="251" height="256"
     viewBox="0 0 251 256">
  <defs>
    <style>.a{fill:none;}.b{opacity:0.15;clip-path:url(#a);}.c{fill:#6c00ff;}</style>
    <clipPath id="a">
      <rect class="a" width="251" height="256"/>
    </clipPath>
  </defs>
  <g class="b">
    <g transform="translate(-1093 -46)">
      <circle class="c" cx="3" cy="3" r="3" transform="translate(1097 50)"/>
    </g>
    <g transform="translate(-1071 -46)">
      <circle class="c" cx="3" cy="3" r="3" transform="translate(1097 50)"/>
    </g>
    <g transform="translate(-1049 -46)">
      <circle class="c" cx="3" cy="3" r="3" transform="translate(1097 50)"/>
    </g>
    <g transform="translate(-1027 -46)">
      <circle class="c" cx="3" cy="3" r="3" transform="translate(1097 50)"/>
    </g>
    <g transform="translate(-1005 -46)">
      <circle class="c" cx="3" cy="3" r="3" transform="translate(1097 50)"/>
    </g>
    <g transform="translate(-983 -46)">
      <circle class="c" cx="3" cy="3" r="3" transform="translate(1097 50)"/>
    </g>
    <g transform="translate(-961 -46)">
      <circle class="c" cx="3" cy="3" r="3" transform="translate(1097 50)"/>
    </g>
    <g transform="translate(-939 -46)">
      <circle class="c" cx="3" cy="3" r="3" transform="translate(1097 50)"/>
    </g>
    <g transform="translate(-917 -46)">
      <circle class="c" cx="3" cy="3" r="3" transform="translate(1097 50)"/>
    </g>
    <g transform="translate(-895 -46)">
      <circle class="c" cx="3" cy="3" r="3" transform="translate(1097 50)"/>
    </g>
    <g transform="translate(-873 -46)">
      <circle class="c" cx="3" cy="3" r="3" transform="translate(1097 50)"/>
    </g>
    <g transform="translate(-851 -46)">
      <circle class="c" cx="3" cy="3" r="3" transform="translate(1097 50)"/>
    </g>
    <g transform="translate(-1093 -19)">
      <circle class="c" cx="3" cy="3" r="3" transform="translate(1097 50)"/>
    </g>
    <g transform="translate(-1071 -19)">
      <circle class="c" cx="3" cy="3" r="3" transform="translate(1097 50)"/>
    </g>
    <g transform="translate(-1049 -19)">
      <circle class="c" cx="3" cy="3" r="3" transform="translate(1097 50)"/>
    </g>
    <g transform="translate(-1027 -19)">
      <circle class="c" cx="3" cy="3" r="3" transform="translate(1097 50)"/>
    </g>
    <g transform="translate(-1005 -19)">
      <circle class="c" cx="3" cy="3" r="3" transform="translate(1097 50)"/>
    </g>
    <g transform="translate(-983 -19)">
      <circle class="c" cx="3" cy="3" r="3" transform="translate(1097 50)"/>
    </g>
    <g transform="translate(-961 -19)">
      <circle class="c" cx="3" cy="3" r="3" transform="translate(1097 50)"/>
    </g>
    <g transform="translate(-939 -19)">
      <circle class="c" cx="3" cy="3" r="3" transform="translate(1097 50)"/>
    </g>
    <g transform="translate(-917 -19)">
      <circle class="c" cx="3" cy="3" r="3" transform="translate(1097 50)"/>
    </g>
    <g transform="translate(-895 -19)">
      <circle class="c" cx="3" cy="3" r="3" transform="translate(1097 50)"/>
    </g>
    <g transform="translate(-873 -19)">
      <circle class="c" cx="3" cy="3" r="3" transform="translate(1097 50)"/>
    </g>
    <g transform="translate(-851 -19)">
      <circle class="c" cx="3" cy="3" r="3" transform="translate(1097 50)"/>
    </g>
    <g transform="translate(-1093 8)">
      <circle class="c" cx="3" cy="3" r="3" transform="translate(1097 50)"/>
    </g>
    <g transform="translate(-1071 8)">
      <circle class="c" cx="3" cy="3" r="3" transform="translate(1097 50)"/>
    </g>
    <g transform="translate(-1049 8)">
      <circle class="c" cx="3" cy="3" r="3" transform="translate(1097 50)"/>
    </g>
    <g transform="translate(-1027 8)">
      <circle class="c" cx="3" cy="3" r="3" transform="translate(1097 50)"/>
    </g>
    <g transform="translate(-1005 8)">
      <circle class="c" cx="3" cy="3" r="3" transform="translate(1097 50)"/>
    </g>
    <g transform="translate(-983 8)">
      <circle class="c" cx="3" cy="3" r="3" transform="translate(1097 50)"/>
    </g>
    <g transform="translate(-961 8)">
      <circle class="c" cx="3" cy="3" r="3" transform="translate(1097 50)"/>
    </g>
    <g transform="translate(-939 8)">
      <circle class="c" cx="3" cy="3" r="3" transform="translate(1097 50)"/>
    </g>
    <g transform="translate(-917 8)">
      <circle class="c" cx="3" cy="3" r="3" transform="translate(1097 50)"/>
    </g>
    <g transform="translate(-895 8)">
      <circle class="c" cx="3" cy="3" r="3" transform="translate(1097 50)"/>
    </g>
    <g transform="translate(-873 8)">
      <circle class="c" cx="3" cy="3" r="3" transform="translate(1097 50)"/>
    </g>
    <g transform="translate(-851 8)">
      <circle class="c" cx="3" cy="3" r="3" transform="translate(1097 50)"/>
    </g>
    <g transform="translate(-1093 35)">
      <circle class="c" cx="3" cy="3" r="3" transform="translate(1097 50)"/>
    </g>
    <g transform="translate(-1071 35)">
      <circle class="c" cx="3" cy="3" r="3" transform="translate(1097 50)"/>
    </g>
    <g transform="translate(-1049 35)">
      <circle class="c" cx="3" cy="3" r="3" transform="translate(1097 50)"/>
    </g>
    <g transform="translate(-1027 35)">
      <circle class="c" cx="3" cy="3" r="3" transform="translate(1097 50)"/>
    </g>
    <g transform="translate(-1005 35)">
      <circle class="c" cx="3" cy="3" r="3" transform="translate(1097 50)"/>
    </g>
    <g transform="translate(-983 35)">
      <circle class="c" cx="3" cy="3" r="3" transform="translate(1097 50)"/>
    </g>
    <g transform="translate(-961 35)">
      <circle class="c" cx="3" cy="3" r="3" transform="translate(1097 50)"/>
    </g>
    <g transform="translate(-939 35)">
      <circle class="c" cx="3" cy="3" r="3" transform="translate(1097 50)"/>
    </g>
    <g transform="translate(-917 35)">
      <circle class="c" cx="3" cy="3" r="3" transform="translate(1097 50)"/>
    </g>
    <g transform="translate(-895 35)">
      <circle class="c" cx="3" cy="3" r="3" transform="translate(1097 50)"/>
    </g>
    <g transform="translate(-873 35)">
      <circle class="c" cx="3" cy="3" r="3" transform="translate(1097 50)"/>
    </g>
    <g transform="translate(-851 35)">
      <circle class="c" cx="3" cy="3" r="3" transform="translate(1097 50)"/>
    </g>
    <g transform="translate(-1093 62)">
      <circle class="c" cx="3" cy="3" r="3" transform="translate(1097 50)"/>
    </g>
    <g transform="translate(-1071 62)">
      <circle class="c" cx="3" cy="3" r="3" transform="translate(1097 50)"/>
    </g>
    <g transform="translate(-1049 62)">
      <circle class="c" cx="3" cy="3" r="3" transform="translate(1097 50)"/>
    </g>
    <g transform="translate(-1027 62)">
      <circle class="c" cx="3" cy="3" r="3" transform="translate(1097 50)"/>
    </g>
    <g transform="translate(-1005 62)">
      <circle class="c" cx="3" cy="3" r="3" transform="translate(1097 50)"/>
    </g>
    <g transform="translate(-983 62)">
      <circle class="c" cx="3" cy="3" r="3" transform="translate(1097 50)"/>
    </g>
    <g transform="translate(-961 62)">
      <circle class="c" cx="3" cy="3" r="3" transform="translate(1097 50)"/>
    </g>
    <g transform="translate(-939 62)">
      <circle class="c" cx="3" cy="3" r="3" transform="translate(1097 50)"/>
    </g>
    <g transform="translate(-917 62)">
      <circle class="c" cx="3" cy="3" r="3" transform="translate(1097 50)"/>
    </g>
    <g transform="translate(-895 62)">
      <circle class="c" cx="3" cy="3" r="3" transform="translate(1097 50)"/>
    </g>
    <g transform="translate(-873 62)">
      <circle class="c" cx="3" cy="3" r="3" transform="translate(1097 50)"/>
    </g>
    <g transform="translate(-851 62)">
      <circle class="c" cx="3" cy="3" r="3" transform="translate(1097 50)"/>
    </g>
    <g transform="translate(-1093 89)">
      <circle class="c" cx="3" cy="3" r="3" transform="translate(1097 50)"/>
    </g>
    <g transform="translate(-1071 89)">
      <circle class="c" cx="3" cy="3" r="3" transform="translate(1097 50)"/>
    </g>
    <g transform="translate(-1049 89)">
      <circle class="c" cx="3" cy="3" r="3" transform="translate(1097 50)"/>
    </g>
    <g transform="translate(-1027 89)">
      <circle class="c" cx="3" cy="3" r="3" transform="translate(1097 50)"/>
    </g>
    <g transform="translate(-1005 89)">
      <circle class="c" cx="3" cy="3" r="3" transform="translate(1097 50)"/>
    </g>
    <g transform="translate(-983 89)">
      <circle class="c" cx="3" cy="3" r="3" transform="translate(1097 50)"/>
    </g>
    <g transform="translate(-961 89)">
      <circle class="c" cx="3" cy="3" r="3" transform="translate(1097 50)"/>
    </g>
    <g transform="translate(-939 89)">
      <circle class="c" cx="3" cy="3" r="3" transform="translate(1097 50)"/>
    </g>
    <g transform="translate(-917 89)">
      <circle class="c" cx="3" cy="3" r="3" transform="translate(1097 50)"/>
    </g>
    <g transform="translate(-895 89)">
      <circle class="c" cx="3" cy="3" r="3" transform="translate(1097 50)"/>
    </g>
    <g transform="translate(-873 89)">
      <circle class="c" cx="3" cy="3" r="3" transform="translate(1097 50)"/>
    </g>
    <g transform="translate(-851 89)">
      <circle class="c" cx="3" cy="3" r="3" transform="translate(1097 50)"/>
    </g>
    <g transform="translate(-1093 116)">
      <circle class="c" cx="3" cy="3" r="3" transform="translate(1097 50)"/>
    </g>
    <g transform="translate(-1071 116)">
      <circle class="c" cx="3" cy="3" r="3" transform="translate(1097 50)"/>
    </g>
    <g transform="translate(-1049 116)">
      <circle class="c" cx="3" cy="3" r="3" transform="translate(1097 50)"/>
    </g>
    <g transform="translate(-1027 116)">
      <circle class="c" cx="3" cy="3" r="3" transform="translate(1097 50)"/>
    </g>
    <g transform="translate(-1005 116)">
      <circle class="c" cx="3" cy="3" r="3" transform="translate(1097 50)"/>
    </g>
    <g transform="translate(-983 116)">
      <circle class="c" cx="3" cy="3" r="3" transform="translate(1097 50)"/>
    </g>
    <g transform="translate(-961 116)">
      <circle class="c" cx="3" cy="3" r="3" transform="translate(1097 50)"/>
    </g>
    <g transform="translate(-939 116)">
      <circle class="c" cx="3" cy="3" r="3" transform="translate(1097 50)"/>
    </g>
    <g transform="translate(-917 116)">
      <circle class="c" cx="3" cy="3" r="3" transform="translate(1097 50)"/>
    </g>
    <g transform="translate(-895 116)">
      <circle class="c" cx="3" cy="3" r="3" transform="translate(1097 50)"/>
    </g>
    <g transform="translate(-873 116)">
      <circle class="c" cx="3" cy="3" r="3" transform="translate(1097 50)"/>
    </g>
    <g transform="translate(-851 116)">
      <circle class="c" cx="3" cy="3" r="3" transform="translate(1097 50)"/>
    </g>
    <g transform="translate(-1093 143)">
      <circle class="c" cx="3" cy="3" r="3" transform="translate(1097 50)"/>
    </g>
    <g transform="translate(-1071 143)">
      <circle class="c" cx="3" cy="3" r="3" transform="translate(1097 50)"/>
    </g>
    <g transform="translate(-1049 143)">
      <circle class="c" cx="3" cy="3" r="3" transform="translate(1097 50)"/>
    </g>
    <g transform="translate(-1027 143)">
      <circle class="c" cx="3" cy="3" r="3" transform="translate(1097 50)"/>
    </g>
    <g transform="translate(-1005 143)">
      <circle class="c" cx="3" cy="3" r="3" transform="translate(1097 50)"/>
    </g>
    <g transform="translate(-983 143)">
      <circle class="c" cx="3" cy="3" r="3" transform="translate(1097 50)"/>
    </g>
    <g transform="translate(-961 143)">
      <circle class="c" cx="3" cy="3" r="3" transform="translate(1097 50)"/>
    </g>
    <g transform="translate(-939 143)">
      <circle class="c" cx="3" cy="3" r="3" transform="translate(1097 50)"/>
    </g>
    <g transform="translate(-917 143)">
      <circle class="c" cx="3" cy="3" r="3" transform="translate(1097 50)"/>
    </g>
    <g transform="translate(-895 143)">
      <circle class="c" cx="3" cy="3" r="3" transform="translate(1097 50)"/>
    </g>
    <g transform="translate(-873 143)">
      <circle class="c" cx="3" cy="3" r="3" transform="translate(1097 50)"/>
    </g>
    <g transform="translate(-851 143)">
      <circle class="c" cx="3" cy="3" r="3" transform="translate(1097 50)"/>
    </g>
    <g transform="translate(-1093 170)">
      <circle class="c" cx="3" cy="3" r="3" transform="translate(1097 50)"/>
    </g>
    <g transform="translate(-1071 170)">
      <circle class="c" cx="3" cy="3" r="3" transform="translate(1097 50)"/>
    </g>
    <g transform="translate(-1049 170)">
      <circle class="c" cx="3" cy="3" r="3" transform="translate(1097 50)"/>
    </g>
    <g transform="translate(-1027 170)">
      <circle class="c" cx="3" cy="3" r="3" transform="translate(1097 50)"/>
    </g>
    <g transform="translate(-1005 170)">
      <circle class="c" cx="3" cy="3" r="3" transform="translate(1097 50)"/>
    </g>
    <g transform="translate(-983 170)">
      <circle class="c" cx="3" cy="3" r="3" transform="translate(1097 50)"/>
    </g>
    <g transform="translate(-961 170)">
      <circle class="c" cx="3" cy="3" r="3" transform="translate(1097 50)"/>
    </g>
    <g transform="translate(-939 170)">
      <circle class="c" cx="3" cy="3" r="3" transform="translate(1097 50)"/>
    </g>
    <g transform="translate(-917 170)">
      <circle class="c" cx="3" cy="3" r="3" transform="translate(1097 50)"/>
    </g>
    <g transform="translate(-895 170)">
      <circle class="c" cx="3" cy="3" r="3" transform="translate(1097 50)"/>
    </g>
    <g transform="translate(-873 170)">
      <circle class="c" cx="3" cy="3" r="3" transform="translate(1097 50)"/>
    </g>
    <g transform="translate(-851 170)">
      <circle class="c" cx="3" cy="3" r="3" transform="translate(1097 50)"/>
    </g>
    <g transform="translate(-1093 197)">
      <circle class="c" cx="3" cy="3" r="3" transform="translate(1097 50)"/>
    </g>
    <g transform="translate(-1071 197)">
      <circle class="c" cx="3" cy="3" r="3" transform="translate(1097 50)"/>
    </g>
    <g transform="translate(-1049 197)">
      <circle class="c" cx="3" cy="3" r="3" transform="translate(1097 50)"/>
    </g>
    <g transform="translate(-1027 197)">
      <circle class="c" cx="3" cy="3" r="3" transform="translate(1097 50)"/>
    </g>
    <g transform="translate(-1005 197)">
      <circle class="c" cx="3" cy="3" r="3" transform="translate(1097 50)"/>
    </g>
    <g transform="translate(-983 197)">
      <circle class="c" cx="3" cy="3" r="3" transform="translate(1097 50)"/>
    </g>
    <g transform="translate(-961 197)">
      <circle class="c" cx="3" cy="3" r="3" transform="translate(1097 50)"/>
    </g>
    <g transform="translate(-939 197)">
      <circle class="c" cx="3" cy="3" r="3" transform="translate(1097 50)"/>
    </g>
    <g transform="translate(-917 197)">
      <circle class="c" cx="3" cy="3" r="3" transform="translate(1097 50)"/>
    </g>
    <g transform="translate(-895 197)">
      <circle class="c" cx="3" cy="3" r="3" transform="translate(1097 50)"/>
    </g>
    <g transform="translate(-873 197)">
      <circle class="c" cx="3" cy="3" r="3" transform="translate(1097 50)"/>
    </g>
    <g transform="translate(-851 197)">
      <circle class="c" cx="3" cy="3" r="3" transform="translate(1097 50)"/>
    </g>
  </g>
</svg>